<svg width="46" height="46" viewBox="0 0 46 46" fill="none" xmlns="http://www.w3.org/2000/svg">
<path d="M38 26V40C38 42.2091 36.2091 44 34 44H6C3.79086 44 2 42.2091 2 40V12C2 9.79086 3.79086 8 6 8H20.4186" stroke="black" stroke-width="3" stroke-linecap="round"/>
<path d="M21.102 33.1307L43.7729 10.4598C44.554 9.67873 44.554 8.4124 43.7729 7.63135L41.5814 5.43984L40.5512 4.40963L38.3597 2.21812C37.5786 1.43707 36.3123 1.43708 35.5313 2.21812L12.8603 24.8891C12.5904 25.159 12.4033 25.5006 12.3213 25.8734L10.7935 32.8145C10.4796 34.2407 11.7505 35.5116 13.1767 35.1976L20.1177 33.6698C20.4905 33.5877 20.832 33.4007 21.102 33.1307Z" fill="black" stroke="black"/>
</svg>
