<svg width="48" height="23" viewBox="0 0 48 23" fill="none" xmlns="http://www.w3.org/2000/svg">
<circle cx="11.1429" cy="11.1429" r="11.1429" fill="#959595"/>
<path d="M21.4286 8.57143H46C47.1046 8.57143 48 9.46686 48 10.5714V13.7143H21.4286V8.57143Z" fill="#959595"/>
<path d="M36 13.7143L36 17.7143C36 18.8189 35.1046 19.7143 34 19.7143L32.8571 19.7143C31.7526 19.7143 30.8571 18.8189 30.8571 17.7143L30.8571 13.7143L36 13.7143Z" fill="#959595"/>
<path d="M48 13.7143L48 19.4286C48 20.5331 47.1046 21.4286 46 21.4286L44.8571 21.4286C43.7526 21.4286 42.8571 20.5331 42.8571 19.4286L42.8571 13.7143L48 13.7143Z" fill="#959595"/>
</svg>
